<svg xmlns="http://www.w3.org/2000/svg" pointer-events="none" class="leaflet-zoom-animated" width="1140" height="630" viewBox="-95 -52 1140 630" style="transform: translate3d(-95px, -52px, 0px);"><g><path class="leaflet-interactive" stroke="#201920" stroke-opacity="1" stroke-width="2" stroke-linecap="round" stroke-linejoin="round" fill="none" d="M303 232L301 228L304 225L303 224L307 220L309 220L309 218L310 219L313 217L314 220L318 220L321 214L326 215L326 213L327 214L333 209L340 206L340 199L343 198L340 186L337 185L342 182L343 183L347 181L353 181L351 177L356 165L361 168L370 167L370 157L377 153L377 149L383 149L382 152L384 152L384 154L386 156L387 155L388 158L395 160L398 163L401 170L399 180L402 183L403 182L408 184L416 184L423 190L426 189L425 190L431 202L457 202L473 209L477 208L478 210L493 204L505 204L510 202L520 193L517 190L518 185L520 183L529 186L536 180L539 181L542 179L546 173L550 173L556 169L560 169L559 170L560 169L562 171L565 170L564 165L558 159L555 158L551 162L549 160L545 160L543 162L540 158L542 157L547 143L553 146L557 142L562 141L562 135L566 127L570 123L570 119L566 117L571 111L572 112L579 109L587 109L593 113L596 112L600 116L602 120L601 121L603 123L602 124L605 129L604 130L608 136L607 139L609 139L608 142L610 145L615 145L623 151L625 151L627 155L626 158L629 162L633 162L645 156L651 155L649 157L649 163L646 164L647 166L645 174L642 177L640 183L639 184L633 181L629 185L629 200L627 200L625 202L626 203L622 199L621 204L619 204L616 207L612 207L613 210L611 212L606 211L607 210L604 209L603 212L598 217L596 217L597 218L596 217L591 221M331 279L329 275L330 274L332 276L334 274L334 272L331 269L331 265L333 263L328 261L328 255L322 255L319 252L317 252L315 250L315 246L307 244L307 242L309 243M491 343L489 341L490 338L485 337L482 334L474 340L472 338L469 340L467 338L465 338L465 340L461 340L461 348L459 348L458 344L454 346L452 342L448 342L447 341L449 337L446 336L444 332L444 330L446 330L438 330L439 323L443 319L445 319L445 309L443 307L442 308L441 303L438 302L435 307L431 303L427 303L415 312L407 312L406 308L404 308L403 305L400 306L401 305L392 304L390 310L388 308L389 305L378 306L376 304L373 305L374 304L372 306L371 303L367 303L368 301L363 300L361 296L358 297L348 289L346 289L345 292L336 285L332 285L331 279M497 345L491 343M499 437L499 431M505 378L508 384M511 401L509 407M519 452L525 450M540 430L544 425M557 409L560 402M560 379L560 386M566 361L563 367M577 345L572 350M580 334L582 326" id="国界"/><path class="leaflet-interactive" stroke="#201920" stroke-opacity="1" stroke-width="2" stroke-linecap="butt" stroke-linejoin="round" stroke-dasharray="4,4" stroke-dashoffset="4" fill="none" d="M309 243L311 241L309 239L309 233L303 232" id="争议"/><path class="leaflet-interactive" stroke="gray" stroke-opacity="1" stroke-width="1" stroke-linecap="round" stroke-linejoin="round" stroke-dasharray="8,4,4,4" fill="none" d="M529 341L529 341M533 339L531 341L533 342L533 339" id="港澳"/><path class="leaflet-interactive" stroke="#4190da" stroke-opacity="1" stroke-width="1" stroke-linecap="round" stroke-linejoin="round" fill="none" d="M532 340L530 338L530 340L527 343L526 342L526 344L520 344L518 346L510 348L512 352L510 354L508 354L507 345L497 345M511 348L511 348M511 348L512 349L510 349L511 348M529 341L529 341M532 340L532 340M532 340L532 340M532 340L532 340M565 313L563 317L563 321L565 321L561 321L562 322L560 322L560 324L557 327L555 327L555 329L551 333L549 333L544 338L541 337L541 339L536 338L534 339L535 340L533 340L534 341L532 340M565 313L565 313M576 298L575 297L575 303L573 305L572 304L572 306L569 308L570 309L565 313M574 246L571 247L569 251L566 250L567 251L561 259L568 264L571 271L571 275L573 275L574 278L576 278L577 281L571 280L573 282M573 282L576 283L578 288L572 288L577 293L577 297M574 246L574 246M574 246L574 246M579 227L572 232L572 230L575 229L573 225L578 220L576 216L572 216L569 219L569 221L563 223L562 226L559 229L560 228L557 229L558 230L554 228L552 232L552 234L554 234L557 237L560 236L562 238L560 240L561 243L565 243L565 241L569 238L571 238L574 241L577 240L581 242L580 245L577 244L574 246M574 246L575 245L574 246M576 298L576 298M576 298L576 298M576 298L576 298M577 297L576 298M577 297L577 297M578 292L578 292M578 292L578 292M578 292L578 292M579 292L578 292M578 292L577 291L579 292M579 292L579 292M579 290L579 290M579 290L579 290M579 227L579 227M591 221L588 224L584 224L579 227M580 287L580 287M580 287L580 287M581 287L581 287M502 345L502 345M504 349L504 349M506 355L506 355M506 429L509 428L506 429M506 366L501 363L501 359L505 355L506 356L512 354L515 356L512 362L506 366M508 426L508 426M511 351L511 351M511 348L511 348M511 426L512 427L511 426M511 425L512 424L511 425M512 348L512 348M512 353L512 353M512 425L512 425M512 349L512 349M516 380L516 380M517 372L517 372M517 422L517 422M517 376L517 376M517 418L517 418M518 428L518 428M518 426L518 426M518 376L518 376M518 376L518 376M518 426L518 426M518 377L518 377M518 421L519 422L518 421M518 375L518 375M518 427L518 427M518 375L518 375M519 378L518 377L519 378M519 376L519 376M519 378L519 378M520 425L520 425M520 377L520 377M520 449L520 449M521 421L522 420L521 421M521 420L521 420M521 449L521 449M521 374L521 374M521 381L522 380L521 381M521 373L521 373M522 420L522 420M522 449L522 449M522 420L522 420M522 439L522 439M522 373L522 373M522 374L522 374M522 377L522 377M523 345L523 345M523 438L523 438M523 379L524 378L523 379M523 376L523 376M523 416L523 416M523 439L523 439M523 438L523 438M523 420L524 421L523 420M523 437L523 437M523 442L523 442M523 345L523 345M523 439L524 440L523 439M524 440L524 440M524 376L524 376M524 442L524 442M524 344L523 345L524 344M524 377L524 377M524 375L524 375M525 345L524 344L525 345M525 420L525 420M525 345L525 345M525 374L525 374M525 426L525 426M525 416L525 416M525 416L525 416M525 443L526 442L525 443M526 423L526 423M526 358L526 358M526 416L526 416M526 344L526 344M527 343L527 343M527 344L527 344M527 343L527 343M527 435L527 435M527 425L527 425M527 425L528 424L527 425M529 342L529 342M529 412L529 412M529 431L529 431M529 420L530 419L529 420M530 418L530 418M530 343L530 343M530 381L530 381M530 343L530 343M530 343L530 343M530 343L530 343M530 427L531 428L530 427M530 429L530 429M531 340L531 340M531 342L531 342M531 360L531 360M531 341L531 341M531 414L531 414M531 382L531 382M531 381L531 381M531 425L531 425M531 428L535 426L531 428M531 420L531 420M531 380L531 380M531 420L532 421L531 420M531 420L532 421L531 420M531 382L531 382M532 414L532 414M532 409L532 409M532 425L532 425M532 379L532 379M532 341L532 341M532 343L532 343M532 417L533 418L532 417M533 341L533 341M533 343L533 343M533 421L533 421M533 379L533 379M533 343L533 343M533 382L533 382M533 412L533 412M533 415L533 415M533 342L533 342M533 381L533 381M533 415L533 415M533 406L533 406M533 339L533 339M533 408L533 408M533 341L533 341M534 413L534 413M534 410L534 410M534 405L534 405M534 379L535 378L534 379M534 414L534 414M534 381L534 381M534 415L534 415M534 409L534 409M534 410L535 409L534 410M534 414L534 414M534 425L535 424L534 425M535 414L535 414M535 414L535 414M535 406L535 406M535 414L535 414M535 420L535 420M535 381L535 381M535 414L535 414M535 406L535 406M535 340L535 340M535 428L535 428M535 424L535 424M535 412L535 412M535 405L536 406L535 405M536 408L536 408M536 378L536 378M536 415L535 416L536 415M536 424L536 424M536 407L536 407M536 379L536 379M536 409L536 409M536 430L536 430M536 425L537 426L536 425M537 409L537 409M537 379L537 379M537 428L537 428M537 408L537 408M538 423L539 424L538 423M539 422L539 422M539 413L539 413M539 391L539 391M540 417L540 417M540 414L540 414M540 423L540 423M541 411L541 411M541 411L541 411M541 411L541 411M542 411L542 411M542 411L542 411M542 415L542 415M542 409L542 409M542 349L542 349M543 348L543 348M543 418L543 418M543 413L543 413M544 416L544 416M544 420L544 420M545 415L545 415M546 419L546 419M546 415L546 415M546 412L546 412M546 415L546 415M547 411L547 411M547 377L547 377M547 405L547 405M547 351L547 351M547 419L547 419M547 350L548 351L547 350M548 411L548 411M549 334L549 334M550 410L550 410M550 410L550 410M550 412L550 412M550 410L550 410M550 408L550 408M551 413L551 413M551 408L551 408M552 410L552 410M553 408L553 408M553 384L553 384M553 409L553 409M555 328L555 328M555 328L555 328M556 328L556 328M557 327L556 328L557 327M558 229L558 229M559 229L559 229M559 229L559 229M562 335L562 335M563 323L563 323M563 334L563 334M563 333L563 333M563 332L563 332M563 320L563 320M564 317L564 317M564 333L564 333M564 320L564 320M564 320L564 320M564 314L564 314M564 322L564 322M564 322L564 322M564 314L564 314M565 320L565 320M565 317L565 317M565 318L565 318M566 334L566 334M566 316L566 316M566 315L566 315M566 314L566 314M566 314L566 314M566 313L566 313M567 253L567 253M567 312L567 312M568 341L568 341M568 312L568 312M568 239L568 239M568 315L568 315M569 237L569 237M570 343L567 339L566 332L571 326L571 324L575 322L577 324L573 338L570 343M570 237L570 237M570 237L570 237M570 236L570 236M570 219L570 219M570 235L570 235M571 234L571 234M571 234L571 234M571 248L571 248M572 305L572 305M572 309L572 309M572 305L572 305M572 305L572 305M574 280L577 282L575 282L574 280M574 275L574 275M574 338L574 338M574 342L575 343L574 342M575 343L575 343M575 282L575 282M575 298L575 298M576 300L576 300M576 283L575 282L576 283M576 283L578 283L576 283M576 292L576 292M576 300L576 300M576 300L576 300M576 302L576 302M576 291L577 292L576 291M576 284L576 284M576 302L576 302M577 321L577 321M577 325L577 325M577 291L577 291M577 284L577 284M577 290L577 290M577 297L577 297M577 294L577 294M577 292L577 292M577 291L577 291M577 288L577 288M578 292L578 292M578 292L578 292M578 292L578 292M578 292L578 292M578 291L578 291M578 290L578 290M578 290L578 290M578 296L578 296M578 294L577 293L578 294M578 294L578 294M578 292L578 292M579 293L579 293M579 293L579 293M579 294L578 293L579 294M579 292L580 293L579 292M579 228L579 228M579 292L579 292M579 289L579 289M580 289L580 289M580 228L580 228M580 228L580 228M580 288L580 288M581 228L581 228M581 291L581 291M581 230L581 230M581 287L581 287M582 287L582 287M583 226L583 226M583 227L583 227M584 230L584 230M585 319L586 320L584 320L585 319M586 319L586 319M586 318L587 319L586 318M586 320L586 320M586 319L586 319M586 320L586 320M587 224L587 224M591 318L592 319L591 318" id="海洋"/><path class="leaflet-interactive" stroke="#747569" stroke-opacity="0.6" stroke-width="1" stroke-linecap="round" stroke-linejoin="round" fill="none" d="M393 251L391 249L380 248L374 250L370 254L367 253L362 256L355 255L355 253L347 257L341 255L338 258L338 260L336 262L332 262L333 263M439 275L437 275L437 277L434 278L435 279L433 279L433 281L431 279L431 281L428 281L426 277L425 278L425 276L421 274L417 276L406 273L404 271L398 271L394 267L395 266L393 266L393 251M409 229L396 233L396 235L398 235L398 239L402 242L402 244L399 245L399 247L401 247L401 251L395 249L395 251L393 251M462 268L461 269L461 267L460 268L456 264L464 264L465 263L463 259L465 255L468 254L467 255L469 251L466 244L467 243L463 239L458 238L453 233L453 235L450 234L445 229L441 231L436 228L434 230L435 233L433 233L433 235L430 236L428 234L422 234L420 231L418 232L412 228L409 229M431 202L429 204L430 208L428 208L425 211L425 209L423 209L416 217L412 218L408 228L409 229M476 241L471 238L471 234L476 230L474 226L469 229L464 228L464 230L460 232L457 229L457 227L449 223L453 220L452 216L450 215L445 218L442 218L442 215L438 212L440 210L436 201M447 297L446 287L444 284L445 283L443 281L442 276L439 275M462 268L461 271L458 270L459 273L457 275L453 275L452 272L450 274L447 271L445 271L443 265L440 264L437 267L439 269L437 273L439 275M441 304L445 303L444 300L446 300L447 297M482 307L481 304L477 306L476 301L474 301L474 303L471 304L472 307L468 309L469 316L466 315L462 317L456 305L454 307L452 305L453 304L451 300L449 300L448 303L447 302L447 297M483 273L481 275L478 274L476 272L476 268L472 266L471 267L469 263L467 263L467 265L464 266L466 268L463 271L462 268M495 238L489 234L492 229L490 227L485 231L484 239L476 241M476 241L478 241L478 243L479 242L482 245L482 253L483 252L488 257L488 253L491 252L491 250L488 247L490 245L489 244L493 243M482 307L482 309L477 308L472 311L473 314L478 315L476 319L479 322L478 326M478 326L478 328L479 327L482 330L483 329L487 331L487 333L483 335M506 318L503 319L503 321L502 320L497 323L495 323L492 320L492 322L486 326L483 324L478 326M488 302L486 300L484 302L488 305L486 307L482 307M493 243L493 245L501 249L501 255L497 257L496 256L495 259L490 258L488 262L490 262L488 266L489 267L486 268L486 272L483 273M500 277L497 278L494 275L493 276L491 274L488 275L486 273L483 273M505 302L503 304L499 300L499 298L496 299L496 297L494 297L494 299L492 299L489 302L489 300L488 302M488 302L488 300L482 296L482 294L485 293L483 291L485 289L487 291L490 290L490 292L492 291L495 288L494 287L498 285L500 277M493 243L495 238M515 227L515 225L512 228L510 226L510 228L508 228L507 231L503 234L504 237L502 237L502 239L499 240L495 238M500 277L506 281M506 281L509 282L510 285L505 289L502 288L499 293L501 293L503 295L502 296L504 296L504 298M504 298L505 302M531 298L529 294L526 296L525 293L523 295L519 292L518 293L514 291L511 294L508 293L504 298M506 318L505 310L502 311L506 307L505 302M520 326L518 326L517 323L515 325L514 324L517 319L516 316L514 316L515 315L510 318L506 318M514 270L506 270L508 272L507 273L510 274L506 276L506 281M508 346L507 346M508 346L507 345L517 337L517 333L520 330L520 326M508 354L509 354M509 354L511 354M511 261L511 245L513 241L512 236L514 234L514 230L516 228L515 227M511 261L512 265L515 268L514 270M511 261L520 258L520 256L525 257L529 255L530 249M511 353L512 353M539 283L532 280L530 276L520 276L514 270M515 271L515 271M532 217L529 220L523 220L520 223L520 225L515 227M520 326L521 323L525 325L527 321L531 321M540 250L537 251L530 249M530 249L529 246L532 239L529 232L532 229L534 229L535 226L534 223L531 222L534 220L532 217M544 293L540 293L536 295L537 296L533 296L531 298M531 321L533 317L531 317L531 309L529 309L529 307L533 303L531 298M531 321L536 322L532 326L533 327L537 327L539 325L541 327L542 324M561 212L560 213L555 210L556 207L553 202L549 204L547 208L541 208L538 211L535 206L531 212L532 217M544 261L544 263L546 263L547 266L544 267L540 265L541 268L539 268L537 272L538 275L542 275L543 278L539 283M544 293L542 289L543 286L539 283M554 235L551 238L547 238L544 242L543 241L543 243L539 247L540 250M544 261L540 261L540 259L536 257L543 251L539 253L540 250M542 324L544 318L547 315L546 312L550 310L549 307L557 303M550 333L548 331L548 327L542 324M555 296L550 293L548 295L546 291L546 293L544 293M545 261L544 261M562 258L561 257L555 263L554 260L550 262L548 258L545 259L545 261M564 284L560 284L556 278L559 275L560 276L561 273L560 272L556 274L555 270L554 271L555 268L545 261M551 221L551 217L549 217L546 214L546 216L545 215L546 216L544 216L544 218L541 219L542 220L540 224L542 226L548 225M552 232L549 233L547 231L548 225M548 225L548 225M548 225L550 225L550 222M550 222L547 223L548 225M550 333L550 334M551 221L550 222M551 334L551 335M551 221L553 223L551 223L553 226L554 225L554 228M555 296L559 294L559 290L561 290L562 287L563 288L564 284M555 296L554 297L557 300L557 303M568 311L568 309L564 309L564 307L562 309L559 308L559 304L557 303M561 212L561 206L563 204L566 209L574 203L575 204L577 202L584 201L587 197M565 222L563 218L559 216L561 212M571 285L569 287L564 284M570 311L570 311M570 234L572 234M577 281L572 280L573 281L571 285M573 287L571 287L571 285M573 287L574 287M585 168L583 170L579 164L582 161L584 161L584 159L586 159L590 154L590 156L592 156L591 155L593 149L596 148L595 143L599 137L600 132L596 127L594 127L595 128L592 130L584 130L581 126L582 121L578 119L576 121L573 118L576 113L574 111M575 287L575 287M576 287L577 287M577 287L578 286M579 286L580 286M581 286L581 286M630 196L625 195L625 191L617 195L614 192L614 188L612 188L611 191L608 188L609 187L605 185L606 184L604 182L601 183L598 180L590 180L588 177L588 173L584 174M584 174L583 171L586 170L585 168M584 174L581 177L582 178L580 176L575 177L578 180L578 188L580 190L584 188L583 189L587 197M585 168L584 167L585 168M585 168L585 168M585 168L585 168M587 197L588 196L591 199L591 201L593 199L597 207L596 210L598 212L598 216M485 255L485 255M506 313L506 313M525 293L525 293" id="省界"/><path class="leaflet-interactive" stroke="#3388ff" stroke-opacity="0" stroke-width="3" stroke-linecap="round" stroke-linejoin="round" fill="#eee" fill-opacity="0.5" fill-rule="evenodd" d="M551 218L552 217L548 217L547 214L545 216L546 217L541 219L542 220L540 224L542 226L546 226L548 224L547 223L551 221L551 218z" id="北京市"/><path class="leaflet-interactive" stroke="#3388ff" stroke-opacity="0" stroke-width="3" stroke-linecap="round" stroke-linejoin="round" fill="#eee" fill-opacity="0.5" fill-rule="evenodd" d="M553 227L554 226L551 223L553 223L551 221L549 223L550 224L547 226L547 232L552 233L552 231L554 230L553 227zM553 227L553 227z" id="天津市"/><path class="leaflet-interactive" stroke="#3388ff" stroke-opacity="0" stroke-width="3" stroke-linecap="round" stroke-linejoin="round" fill="#eee" fill-opacity="0.5" fill-rule="evenodd" d="M551 217L550 220L553 223L551 223L556 230L558 230L557 229L559 229L565 222L563 218L559 216L561 212L560 213L555 210L556 207L553 202L549 204L547 208L541 208L538 211L535 206L533 208L531 214L533 220L535 220L532 222L531 221L534 224L534 226L535 225L534 228L530 230L531 231L529 235L532 238L532 240L530 246L528 246L531 249L539 251L539 247L543 242L554 235L552 233L547 232L548 225L540 225L540 223L543 220L542 219L546 217L545 216L547 214L548 217L551 217zM550 222L547 223L549 225L550 222zM553 227L553 227zM559 229L559 229z" id="河北省"/><path class="leaflet-interactive" stroke="#3388ff" stroke-opacity="0" stroke-width="3" stroke-linecap="round" stroke-linejoin="round" fill="#eee" fill-opacity="0.5" fill-rule="evenodd" d="M511 261L520 258L520 256L524 257L529 254L529 246L532 241L529 233L535 225L534 226L534 224L531 221L532 222L534 220L533 217L531 219L530 218L529 220L523 220L520 223L520 225L518 225L514 230L515 231L512 236L512 254L510 261z" id="山西省"/><path class="leaflet-interactive" stroke="#3388ff" stroke-opacity="0" stroke-width="3" stroke-linecap="round" stroke-linejoin="round" fill="#eee" fill-opacity="0.5" fill-rule="evenodd" d="M436 201L440 210L438 211L442 218L445 218L446 216L447 217L450 215L452 216L453 220L450 223L457 227L459 231L463 232L464 230L462 229L468 229L474 226L475 227L476 229L471 234L471 238L473 238L475 241L485 238L485 232L490 227L492 229L489 235L494 236L498 240L500 240L503 237L504 233L510 227L513 228L515 225L515 227L517 227L517 225L519 225L522 220L524 221L530 219L532 217L531 212L535 206L538 211L541 208L546 208L548 204L553 203L555 205L554 206L556 208L556 212L561 213L563 205L566 208L566 210L570 205L580 201L584 201L587 198L584 195L586 195L585 190L583 188L580 190L578 188L578 181L577 178L575 178L576 175L578 177L582 177L584 173L583 170L584 171L586 169L584 167L585 168L583 170L579 164L582 161L584 161L584 159L586 159L590 154L590 156L592 156L591 155L593 149L596 148L595 143L599 137L600 132L596 127L594 127L595 128L592 130L584 130L581 126L582 121L578 119L576 121L573 118L576 113L572 111L566 116L566 118L570 118L570 124L566 126L565 131L561 137L562 140L553 146L547 143L543 151L542 157L540 158L543 162L545 160L549 160L551 162L553 159L557 159L564 165L565 169L563 171L559 169L551 171L551 173L548 172L543 179L539 181L536 180L529 186L523 183L519 184L517 188L520 193L518 196L516 196L506 204L493 204L478 210L478 208L475 209L464 206L462 203L446 203L436 201z" id="内蒙古自治区"/><path class="leaflet-interactive" stroke="#3388ff" stroke-opacity="0" stroke-width="3" stroke-linecap="round" stroke-linejoin="round" fill="#eee" fill-opacity="0.5" fill-rule="evenodd" d="M586 224L590 223L594 218L598 216L598 212L596 210L596 206L593 199L591 201L591 199L588 196L586 200L585 199L582 202L579 201L576 204L575 203L570 205L566 209L563 204L561 206L562 211L559 216L563 218L565 222L567 222L570 219L570 217L572 217L571 216L578 217L577 222L574 223L573 226L575 228L572 231L577 230L576 229L577 230L580 226L586 224zM581 228L580 227L581 228zM579 228L579 228zM581 228L581 228zM581 229L581 229zM583 226L583 226zM580 228L580 228zM570 219L570 219zM583 227L583 226zM584 230L584 229zM587 224L587 224z" id="辽宁省"/><path class="leaflet-interactive" stroke="#3388ff" stroke-opacity="0" stroke-width="3" stroke-linecap="round" stroke-linejoin="round" fill="#eee" fill-opacity="0.5" fill-rule="evenodd" d="M620 204L622 200L624 200L626 204L625 201L627 201L630 197L627 196L624 191L616 195L613 188L612 191L610 191L608 188L609 187L607 187L604 182L601 183L594 179L591 180L588 177L589 175L587 173L584 174L581 177L582 178L580 176L576 176L575 178L577 178L579 190L583 188L586 193L586 195L584 195L591 199L591 201L593 199L596 206L596 210L598 212L598 216L600 216L604 209L606 209L606 211L612 212L613 211L611 207L617 207L618 204L620 204z" id="吉林省"/><path class="leaflet-interactive" stroke="#3388ff" stroke-opacity="0" stroke-width="3" stroke-linecap="round" stroke-linejoin="round" fill="#eee" fill-opacity="0.5" fill-rule="evenodd" d="M586 174L587 173L589 175L589 179L594 179L600 183L603 182L606 184L605 185L609 187L608 188L611 191L611 189L614 188L616 195L624 191L625 194L629 196L630 191L628 185L634 181L639 184L640 183L642 177L645 174L647 166L646 165L650 161L648 159L652 155L648 155L636 161L629 162L626 158L627 155L625 151L623 151L619 146L618 147L616 145L613 146L609 144L609 140L607 138L608 137L605 132L605 128L603 126L603 122L600 116L596 112L593 113L588 109L579 109L575 111L576 114L572 118L575 119L575 121L579 119L581 121L583 130L592 130L595 127L598 129L600 133L595 142L596 147L592 151L592 157L591 158L590 155L579 164L583 170L585 168L584 167L586 169L584 171L583 170L583 172L586 174z" id="黑龙江省"/><path class="leaflet-interactive" stroke="#3388ff" stroke-opacity="0" stroke-width="3" stroke-linecap="round" stroke-linejoin="round" fill="#eee" fill-opacity="0.5" fill-rule="evenodd" d="M571 285L572 287L577 287L577 285L574 282L572 282L571 285zM577 281L572 280L574 282L577 282zM576 283L575 282L576 283zM576 283L578 284L576 283zM575 282L575 282zM577 284L577 284zM576 284L577 284z" id="上海市"/><path class="leaflet-interactive" stroke="#3388ff" stroke-opacity="0" stroke-width="3" stroke-linecap="round" stroke-linejoin="round" fill="#eee" fill-opacity="0.5" fill-rule="evenodd" d="M550 261L547 258L545 260L555 268L554 271L555 270L557 274L559 274L559 272L561 274L560 276L559 275L557 277L560 284L561 283L569 287L572 284L572 280L577 281L576 278L574 278L574 276L571 275L571 271L568 264L564 262L561 259L561 257L555 263L554 260L552 262L550 261z" id="江苏省"/><path class="leaflet-interactive" stroke="#3388ff" stroke-opacity="0" stroke-width="3" stroke-linecap="round" stroke-linejoin="round" fill="#eee" fill-opacity="0.5" fill-rule="evenodd" d="M557 303L559 303L559 308L562 309L564 307L564 309L568 309L568 311L570 306L572 306L571 305L575 303L575 297L577 297L577 293L571 285L569 287L564 284L563 288L562 287L562 289L559 290L559 294L555 297L557 303zM578 292L579 291L577 291L578 292zM578 291L578 291zM578 294L578 294zM579 287L580 287zM578 290L578 290zM579 290L579 290zM577 297L577 297zM579 293L580 292L579 293zM579 289L579 289zM576 300L576 300zM579 293L579 293zM576 298L576 298zM573 307L573 307zM577 287L578 288L577 287zM576 302L576 302zM578 294L578 294zM580 292L580 292zM580 288L580 288zM576 302L576 302zM577 291L577 291zM579 292L579 292zM576 292L576 292zM572 308L572 308zM577 297L577 297zM577 294L577 294zM577 291L577 291zM577 290L577 290zM578 292L578 292zM579 294L578 294zM572 306L572 306zM581 291L581 291zM579 290L579 290zM579 293L579 293zM581 287L581 287zM572 305L572 305zM572 305L572 305zM580 292L580 292zM582 287L582 287zM578 292L578 292zM577 292L577 292zM572 305L572 305zM580 292L580 292zM578 292L578 292z" id="浙江省"/><path class="leaflet-interactive" stroke="#3388ff" stroke-opacity="0" stroke-width="3" stroke-linecap="round" stroke-linejoin="round" fill="#eee" fill-opacity="0.5" fill-rule="evenodd" d="M546 265L547 266L544 267L542 265L540 266L541 267L539 271L537 271L537 273L540 276L541 275L543 278L539 282L543 286L542 289L544 293L546 293L546 291L548 295L550 292L556 296L559 293L559 291L562 290L564 285L562 283L559 284L559 282L556 279L558 275L561 274L559 272L559 274L557 274L556 271L554 271L555 268L546 261L544 261L546 265zM559 282L559 282zM547 294L547 294zM540 276L540 276z" id="安徽省"/><path class="leaflet-interactive" stroke="#3388ff" stroke-opacity="0" stroke-width="3" stroke-linecap="round" stroke-linejoin="round" fill="#eee" fill-opacity="0.5" fill-rule="evenodd" d="M560 324L559 323L561 323L561 321L565 321L563 321L565 316L564 314L566 314L565 315L568 310L563 307L561 309L559 307L559 303L557 303L549 307L550 310L546 313L546 317L543 320L542 325L546 327L547 326L548 331L550 333L555 329L555 327L558 327L558 325L560 324zM557 327L556 328L557 327zM563 323L563 323zM563 320L563 320zM566 317L565 316zM556 328L556 328zM565 313L565 313zM555 327L555 327zM565 317L565 317zM564 317L563 317zM566 315L566 314zM564 320L564 320zM564 314L565 314zM566 314L566 314zM568 312L567 312zM567 313L567 313zM564 314L564 314z" id="福建省"/><path class="leaflet-interactive" stroke="#3388ff" stroke-opacity="0" stroke-width="3" stroke-linecap="round" stroke-linejoin="round" fill="#eee" fill-opacity="0.5" fill-rule="evenodd" d="M555 296L550 293L548 295L546 291L546 293L540 293L536 295L537 296L533 296L531 298L533 302L529 308L531 310L531 316L533 316L531 321L536 322L532 326L533 327L537 327L539 325L541 327L542 326L544 318L546 317L545 316L549 308L557 303L554 297L555 296z" id="江西省"/><path class="leaflet-interactive" stroke="#3388ff" stroke-opacity="0" stroke-width="3" stroke-linecap="round" stroke-linejoin="round" fill="#eee" fill-opacity="0.5" fill-rule="evenodd" d="M545 261L545 259L548 258L550 262L554 260L555 263L561 257L562 258L567 251L566 250L569 251L571 247L579 245L581 241L575 241L570 238L567 239L564 243L562 243L560 241L562 238L559 236L557 237L555 235L553 235L551 238L547 238L539 247L539 253L543 251L536 257L541 261L545 261zM570 237L570 238zM570 237L570 237zM571 248L571 248zM570 236L570 236zM571 234L571 234zM567 253L567 253zM569 237L569 237zM570 235L570 235zM574 240L574 240zM574 240L574 240zM574 240L574 240zM540 252L540 252z" id="山东省"/><path class="leaflet-interactive" stroke="#3388ff" stroke-opacity="0" stroke-width="3" stroke-linecap="round" stroke-linejoin="round" fill="#eee" fill-opacity="0.5" fill-rule="evenodd" d="M524 276L530 276L532 280L539 283L540 282L543 278L542 275L538 275L537 272L542 265L544 267L547 266L546 263L544 263L544 261L540 261L538 258L536 258L543 251L539 253L540 250L537 251L531 249L527 256L521 256L521 258L511 262L515 269L514 270L518 275L522 277L524 276zM530 277L530 277z" id="河南省"/><path class="leaflet-interactive" stroke="#3388ff" stroke-opacity="0" stroke-width="3" stroke-linecap="round" stroke-linejoin="round" fill="#eee" fill-opacity="0.5" fill-rule="evenodd" d="M515 271L506 270L508 272L507 273L510 274L506 276L506 280L510 284L510 286L508 286L505 289L502 288L500 290L500 294L501 293L503 295L502 296L504 296L504 298L506 294L512 294L513 291L522 295L526 293L525 294L527 296L529 293L530 298L533 296L537 296L536 295L540 293L544 293L542 289L543 286L540 283L532 280L530 276L520 276L515 271zM504 288L504 288zM515 271L515 271zM524 276L524 276zM525 293L525 293z" id="湖北省"/><path class="leaflet-interactive" stroke="#3388ff" stroke-opacity="0" stroke-width="3" stroke-linecap="round" stroke-linejoin="round" fill="#eee" fill-opacity="0.5" fill-rule="evenodd" d="M520 326L521 323L525 325L527 321L531 321L533 317L531 317L532 314L531 309L529 309L529 307L533 303L529 297L529 293L526 296L525 293L523 295L519 292L518 293L512 291L511 294L509 293L505 295L504 300L506 308L504 308L502 311L506 311L505 316L508 319L509 316L509 318L511 318L514 315L516 319L517 318L514 324L515 325L517 323L518 326L520 325zM506 313L506 313z" id="湖南省"/><path class="leaflet-interactive" stroke="#3388ff" stroke-opacity="0" stroke-width="3" stroke-linecap="round" stroke-linejoin="round" fill="#eee" fill-opacity="0.5" fill-rule="evenodd" d="M529 341L530 338L532 340L541 337L544 338L549 333L549 329L547 327L548 326L542 324L541 327L539 325L537 327L533 327L532 326L536 322L535 321L527 321L525 325L521 323L519 329L520 330L517 333L517 337L507 345L508 354L512 352L510 348L513 346L514 347L526 342L527 343L529 341zM549 334L549 334zM525 344L524 345L525 344zM523 345L524 344L523 345zM533 343L533 342zM511 348L512 347L511 348zM523 345L523 345zM512 348L510 349L512 348zM530 343L530 343zM530 343L530 343zM527 344L527 343zM531 340L530 340zM533 343L533 343zM532 343L532 343zM547 350L548 350zM526 344L526 343zM511 351L511 351zM512 349L512 349zM512 353L512 353zM543 348L543 348zM542 349L543 349zM542 338L542 338zM542 338L542 338z" id="广东省"/><path class="leaflet-interactive" stroke="#3388ff" stroke-opacity="0" stroke-width="3" stroke-linecap="round" stroke-linejoin="round" fill="#eee" fill-opacity="0.5" fill-rule="evenodd" d="M506 318L503 319L503 321L502 320L497 323L494 323L493 320L492 323L491 322L487 324L487 326L483 324L477 326L481 328L481 330L487 330L487 332L484 335L486 337L491 338L489 340L490 343L497 346L507 346L509 343L511 343L511 341L513 341L513 339L517 337L517 333L520 330L520 326L518 326L517 323L515 325L514 324L517 319L515 315L510 318L506 318zM481 324L481 325zM504 349L504 349z" id="广西壮族自治区"/><path class="leaflet-interactive" stroke="#3388ff" stroke-opacity="0" stroke-width="3" stroke-linecap="round" stroke-linejoin="round" fill="#eee" fill-opacity="0.5" fill-rule="evenodd" d="M509 355L505 355L501 359L501 363L503 365L506 366L512 363L512 360L515 357L513 354L510 354zM521 449L521 449zM527 425L528 424zM520 449L520 449zM517 372L517 372zM553 384L553 383zM522 449L522 448zM519 378L519 377zM518 377L518 377zM531 428L535 426L531 427zM531 420L532 421L531 420zM531 421L531 421zM520 377L520 377zM519 376L519 376zM521 420L521 420zM530 429L531 429zM533 421L533 421zM521 373L522 373zM535 412L536 412zM542 415L542 415zM535 414L535 414zM530 427L531 427zM506 429L507 428L506 429zM544 420L545 420zM523 379L524 378L523 379zM523 420L524 420zM534 409L535 409zM522 377L523 377zM546 412L546 411zM522 373L522 373zM517 376L518 376zM540 414L540 414zM535 424L536 424zM534 425L535 424zM538 423L539 424L538 423zM531 425L531 425zM540 417L540 417zM546 419L546 419zM529 420L530 420zM535 408L536 408zM535 406L535 405zM537 409L537 409zM518 376L518 376zM531 420L531 421zM508 426L509 426zM547 405L547 405zM518 375L519 375zM523 376L523 376zM519 378L519 378zM531 414L531 413zM536 424L536 425zM546 415L546 415zM539 413L539 413zM548 411L548 411zM536 378L536 378zM543 418L543 418zM530 418L530 418zM535 428L536 428zM534 410L535 409zM553 409L553 409zM533 412L533 412zM535 405L536 405zM547 411L547 411zM511 425L512 424L511 425zM517 422L517 422zM539 422L539 422zM527 425L527 425zM532 408L532 408zM550 412L550 412zM533 379L533 378zM512 425L512 425zM540 423L540 422zM518 428L518 428zM518 421L519 422L518 421zM511 426L512 426zM522 420L522 420zM546 415L546 415zM520 425L520 425zM534 381L534 381zM537 408L537 408zM532 379L532 379zM543 413L543 413zM550 410L550 410zM536 430L536 430zM525 420L525 420zM518 427L518 427zM521 421L522 420zM523 438L523 438zM535 420L535 420zM536 425L537 425zM526 423L526 423zM529 431L529 431zM547 377L547 377zM551 413L551 413zM526 358L526 358zM534 379L534 378zM531 360L530 360zM524 442L524 442zM518 426L518 426zM522 420L522 420zM525 426L525 426zM523 439L524 439zM523 439L523 439zM539 391L539 391zM529 412L529 412zM531 382L531 382zM525 443L525 442zM523 442L524 442zM522 439L522 439zM521 374L521 374zM521 381L521 380zM524 440L524 440zM523 438L523 438zM527 435L527 435zM544 416L544 416zM537 428L537 428zM518 426L518 426zM531 380L531 380zM537 379L537 379zM547 419L547 419zM524 376L524 376zM516 355L516 355zM542 411L542 411zM550 410L550 410zM524 377L524 377zM542 411L542 411zM523 416L523 416zM535 381L535 381zM550 408L550 408zM553 408L553 408zM532 417L533 417zM536 415L536 416zM523 437L523 437z" id="海南省"/><path class="leaflet-interactive" stroke="#3388ff" stroke-opacity="0" stroke-width="3" stroke-linecap="round" stroke-linejoin="round" fill="#eee" fill-opacity="0.5" fill-rule="evenodd" d="M488 302L490 300L490 302L493 299L494 300L495 297L497 299L498 298L500 300L499 301L501 301L501 303L502 302L502 304L504 304L505 299L504 296L502 296L503 295L501 293L500 294L500 290L502 288L505 289L508 286L509 287L510 284L500 277L498 285L496 287L495 286L495 288L491 292L486 289L484 291L485 292L482 295L486 299L488 299L488 301zM504 288L504 288zM484 291L484 291zM504 288L504 288zM492 292L492 292z" id="重庆市"/><path class="leaflet-interactive" stroke="#3388ff" stroke-opacity="0" stroke-width="3" stroke-linecap="round" stroke-linejoin="round" fill="#eee" fill-opacity="0.5" fill-rule="evenodd" d="M459 310L458 311L460 315L464 317L469 315L468 310L475 301L477 301L476 302L478 306L480 306L481 304L482 307L486 307L488 305L485 304L484 301L488 301L488 299L486 299L482 295L486 289L491 292L495 288L494 287L498 285L500 277L497 278L494 275L488 275L486 273L483 273L481 275L478 274L476 272L476 268L472 266L471 267L469 263L465 265L466 268L463 271L462 268L461 271L458 270L459 273L457 275L453 275L452 272L450 274L447 271L445 271L443 265L440 264L437 267L439 269L437 273L443 278L443 280L446 283L444 283L447 292L447 302L448 303L450 299L453 303L452 304L454 306L456 305L456 307L459 310zM488 291L488 291zM492 291L492 291zM484 291L484 291z" id="四川省"/><path class="leaflet-interactive" stroke="#3388ff" stroke-opacity="0" stroke-width="3" stroke-linecap="round" stroke-linejoin="round" fill="#eee" fill-opacity="0.5" fill-rule="evenodd" d="M505 302L503 304L499 300L499 298L496 299L496 297L494 297L493 300L492 299L489 302L489 300L489 302L486 300L484 302L488 305L486 307L483 306L482 309L474 309L472 311L473 314L478 315L476 320L479 323L478 326L482 324L487 326L487 324L491 322L492 323L493 320L494 323L498 323L498 321L501 322L501 320L504 321L503 320L505 320L506 311L502 311L506 307L505 302zM506 312L506 312zM506 313L506 313z" id="贵州省"/><path class="leaflet-interactive" stroke="#3388ff" stroke-opacity="0" stroke-width="3" stroke-linecap="round" stroke-linejoin="round" fill="#eee" fill-opacity="0.5" fill-rule="evenodd" d="M482 307L481 304L479 306L477 305L477 301L473 302L474 303L472 303L472 306L468 310L469 315L463 317L460 314L457 307L454 306L450 300L448 302L449 303L447 303L447 297L446 300L444 300L445 303L444 304L442 302L441 305L442 308L443 307L445 309L445 319L443 319L439 324L438 330L446 330L444 330L444 332L446 336L447 335L446 336L449 337L447 341L452 342L454 346L458 344L458 346L462 348L462 340L466 338L469 340L471 338L479 338L480 335L484 335L487 332L487 330L481 330L482 329L477 326L479 324L477 320L479 315L477 313L473 313L475 309L482 309L482 307z" id="云南省"/><path class="leaflet-interactive" stroke="#3388ff" stroke-opacity="0" stroke-width="3" stroke-linecap="round" stroke-linejoin="round" fill="#eee" fill-opacity="0.5" fill-rule="evenodd" d="M393 251L391 249L381 248L373 250L372 253L366 253L361 256L357 256L354 253L352 253L348 257L344 255L340 256L336 262L332 262L333 263L330 265L334 273L333 276L331 276L331 274L329 276L329 278L332 281L332 285L338 286L338 288L345 292L346 289L348 289L358 297L361 296L363 300L368 301L367 302L373 306L373 304L375 306L375 304L379 306L389 305L388 308L390 310L391 306L394 303L404 306L404 308L406 308L408 312L415 312L427 303L431 303L435 307L438 302L442 304L442 302L444 304L444 300L446 300L447 297L447 292L442 276L438 275L436 277L437 278L433 280L434 281L430 279L431 281L428 281L426 277L425 278L425 276L421 274L417 276L396 269L394 267L395 266L393 266L393 251z" id="西藏自治区"/><path class="leaflet-interactive" stroke="#3388ff" stroke-opacity="0" stroke-width="3" stroke-linecap="round" stroke-linejoin="round" fill="#eee" fill-opacity="0.5" fill-rule="evenodd" d="M511 261L511 245L513 241L512 236L516 228L515 225L512 228L510 226L510 228L507 229L507 231L503 234L502 239L499 240L495 238L493 240L493 244L501 248L501 256L496 256L495 259L490 258L488 262L490 262L488 266L489 267L485 269L485 273L483 272L484 274L492 274L497 278L500 277L505 281L507 279L506 276L510 274L507 273L508 272L506 270L513 271L515 269L512 266L513 265L511 261zM515 269L515 269zM486 274L486 274z" id="陕西省"/><path class="leaflet-interactive" stroke="#3388ff" stroke-opacity="0" stroke-width="3" stroke-linecap="round" stroke-linejoin="round" fill="#eee" fill-opacity="0.5" fill-rule="evenodd" d="M489 253L488 256L485 255L485 253L482 252L482 245L479 242L478 243L478 241L471 238L471 234L476 230L474 226L469 229L462 229L463 232L457 230L457 228L454 225L449 223L453 220L453 216L450 215L445 218L442 218L442 215L438 212L440 210L436 201L431 202L429 204L430 206L428 209L424 209L416 217L412 218L408 228L412 228L418 232L419 231L421 234L427 234L430 236L433 235L433 233L435 233L434 230L436 228L441 231L445 229L450 234L452 235L452 233L459 238L464 239L463 240L466 243L469 252L467 252L468 255L467 254L463 260L465 263L464 264L460 264L457 262L456 263L460 268L461 267L461 269L463 269L463 271L466 268L464 265L468 263L470 267L471 266L476 268L476 272L478 274L483 274L483 272L484 273L486 271L484 269L489 268L489 258L496 259L497 256L501 256L501 248L490 243L488 247L491 250L491 252L489 253zM486 255L486 255zM468 249L468 249zM486 255L486 255zM489 253L489 253z" id="甘肃省"/><path class="leaflet-interactive" stroke="#3388ff" stroke-opacity="0" stroke-width="3" stroke-linecap="round" stroke-linejoin="round" fill="#eee" fill-opacity="0.5" fill-rule="evenodd" d="M468 249L466 244L467 243L463 239L458 238L456 235L452 233L453 235L451 234L446 229L443 229L441 231L435 228L435 232L431 236L428 234L422 234L420 231L418 232L413 230L413 228L396 233L396 235L398 235L398 239L402 243L399 246L401 248L400 251L395 249L395 251L392 252L394 252L392 256L392 259L394 259L393 266L395 266L394 267L399 271L403 271L417 276L421 274L425 276L424 277L426 277L428 281L430 281L430 279L434 281L433 280L437 278L436 277L438 275L437 272L439 270L437 266L440 264L444 267L445 271L447 271L450 274L452 272L453 275L457 275L459 273L458 270L460 271L462 270L462 268L461 269L461 267L460 268L456 264L465 263L463 259L465 255L468 254L468 249z" id="青海省"/><path class="leaflet-interactive" stroke="#3388ff" stroke-opacity="0" stroke-width="3" stroke-linecap="round" stroke-linejoin="round" fill="#eee" fill-opacity="0.5" fill-rule="evenodd" d="M493 243L495 237L489 235L492 230L491 227L489 227L486 230L484 239L476 241L478 241L478 243L479 242L482 245L482 251L488 257L488 253L491 252L491 250L488 247L490 245L489 244L493 243zM486 255L486 255zM486 255L486 255z" id="宁夏回族自治区"/><path class="leaflet-interactive" stroke="#3388ff" stroke-opacity="0" stroke-width="3" stroke-linecap="round" stroke-linejoin="round" fill="#eee" fill-opacity="0.5" fill-rule="evenodd" d="M431 202L425 189L424 190L412 183L402 183L399 180L401 175L401 169L396 161L390 159L384 154L384 152L382 152L383 149L377 149L377 153L375 155L371 155L370 157L370 167L361 168L356 165L351 177L353 181L347 181L338 184L340 186L340 190L343 197L340 200L342 200L339 202L340 205L336 209L335 208L325 215L322 214L318 218L318 220L314 220L313 218L309 219L306 222L305 221L301 228L304 233L307 232L309 234L308 235L310 241L307 242L307 244L311 244L315 247L316 252L323 255L327 255L328 260L333 263L332 262L336 262L341 255L347 257L353 253L355 255L362 256L366 253L372 253L373 250L381 248L400 251L401 248L399 246L402 243L398 239L398 235L396 235L396 233L408 230L412 218L417 216L423 209L425 209L425 211L430 207L430 202z" id="新疆维吾尔自治区"/><path class="leaflet-interactive" stroke="#3388ff" stroke-opacity="0" stroke-width="3" stroke-linecap="round" stroke-linejoin="round" fill="#eee" fill-opacity="0.5" fill-rule="evenodd" d="M568 340L569 343L571 343L571 339L574 336L577 324L575 322L569 327L566 332L567 339zM592 318L592 318zM585 319L585 319zM564 333L563 333zM587 318L587 318zM563 333L563 333zM563 334L563 334zM563 332L563 332zM577 320L578 320zM574 338L574 338zM574 342L575 342zM578 321L578 321zM562 335L563 335zM568 341L568 340z" id="台湾省"/><path class="leaflet-interactive" stroke="#3388ff" stroke-opacity="0" stroke-width="3" stroke-linecap="round" stroke-linejoin="round" fill="#eee" fill-opacity="0.5" fill-rule="evenodd" d="M532 340L531 341L534 340L532 340zM532 341L532 341zM533 340L533 340zM533 340L533 340zM533 340L533 340zM533 341L533 341zM533 340L533 340zM534 341L534 341zM533 341L533 341z" id="香港特别行政区"/><path class="leaflet-interactive" stroke="#3388ff" stroke-opacity="0" stroke-width="3" stroke-linecap="round" stroke-linejoin="round" fill="#eee" fill-opacity="0.5" fill-rule="evenodd" d="M529 342L529 342zM529 341L529 341z" id="澳门特别行政区"/><path class="leaflet-interactive" stroke="#3388ff" stroke-opacity="0" stroke-width="3" stroke-linecap="round" stroke-linejoin="round" fill="#eee" fill-opacity="0.5" fill-rule="evenodd" d="M580 334L582 327L580 334zM572 350L577 345L576 344L572 350zM563 367L566 361L563 367zM560 384L560 379L560 384zM558 407L557 409L560 402L559 404zM540 430L544 425L540 430zM522 451L519 452L525 450L523 451zM499 436L499 431L499 436zM510 406L509 407L511 401L510 405zM508 383L505 378L507 382z" id="100000_JD"/></g></svg>